# 3ds Max Wavefront OBJ Exporter v0.97b - (c)2007 guruware
# File Created: 20.09.2014 14:34:52

mtllib TrafficCone.mtl

#
# object Box001
#

v  -5.4782 0.0000 10.0000
v  0.0000 0.0000 10.0000
v  0.0000 1.1708 10.0000
v  -5.4782 1.1708 10.0000
v  10.0000 0.0000 5.4782
v  10.0000 0.0000 -0.0000
v  10.0000 1.1708 -0.0000
v  10.0000 1.1708 5.4782
v  5.4782 0.0000 -10.0000
v  0.0000 0.0000 -10.0000
v  0.0000 1.1708 -10.0000
v  5.4782 1.1708 -10.0000
v  -10.0000 0.0000 -5.4782
v  -10.0000 0.0000 -0.0000
v  -10.0000 1.1708 -0.0000
v  -10.0000 1.1708 -5.4782
v  5.4782 1.1708 10.0000
v  5.4782 0.0000 10.0000
v  -10.0000 1.1708 5.4782
v  -10.0000 0.0000 5.4782
v  10.0000 1.1708 -5.4782
v  10.0000 0.0000 -5.4782
v  -5.4782 1.1708 -10.0000
v  -5.4782 0.0000 -10.0000
v  -3.1705 1.5000 5.4915
v  -5.3298 1.5000 9.7062
v  0.0000 1.5000 9.6708
v  0.0000 1.5000 6.3410
v  3.1705 1.5000 5.4915
v  5.3298 1.5000 9.7062
v  9.7062 1.5000 5.3298
v  5.4915 1.5000 3.1705
v  9.6708 1.5000 -0.0000
v  6.3410 1.5000 -0.0000
v  5.4915 1.5000 -3.1705
v  9.7062 1.5000 -5.3298
v  5.3298 1.5000 -9.7062
v  3.1705 1.5000 -5.4915
v  0.0000 1.5000 -9.6708
v  0.0000 1.5000 -6.3410
v  -3.1705 1.5000 -5.4915
v  -5.3298 1.5000 -9.7062
v  -9.7062 1.5000 -5.3298
v  -5.4915 1.5000 -3.1705
v  -9.6708 1.5000 -0.0000
v  -6.3410 1.5000 -0.0000
v  -5.4915 1.5000 3.1705
v  -9.7062 1.5000 5.3298
v  0.0000 1.8535 6.2941
v  -3.1471 1.8535 5.4509
v  3.1471 1.8535 5.4509
v  5.4509 1.8535 3.1471
v  6.2941 1.8535 -0.0000
v  5.4509 1.8535 -3.1471
v  3.1471 1.8535 -5.4509
v  0.0000 1.8535 -6.2941
v  -3.1471 1.8535 -5.4509
v  -5.4509 1.8535 -3.1471
v  -6.2941 1.8535 -0.0000
v  -5.4509 1.8535 3.1471
v  -2.8920 2.1970 5.0091
v  0.0000 2.1970 5.7840
v  0.0000 8.7981 4.6073
v  -2.3036 8.7981 3.9900
v  2.8920 2.1970 5.0091
v  2.3036 8.7981 3.9900
v  5.0091 2.1970 2.8920
v  3.9900 8.7981 2.3036
v  5.7840 2.1970 -0.0000
v  4.6073 8.7981 -0.0000
v  5.0091 2.1970 -2.8920
v  3.9900 8.7981 -2.3036
v  2.8920 2.1970 -5.0091
v  2.3036 8.7981 -3.9900
v  0.0000 2.1970 -5.7840
v  0.0000 8.7981 -4.6073
v  -2.8920 2.1970 -5.0091
v  -2.3036 8.7981 -3.9900
v  -5.0091 2.1970 -2.8920
v  -3.9900 8.7981 -2.3036
v  -5.7840 2.1970 -0.0000
v  -4.6073 8.7981 -0.0000
v  -5.0091 2.1970 2.8920
v  -3.9900 8.7981 2.3036
v  0.0000 21.6084 2.3237
v  -1.1619 21.6084 2.0124
v  1.1619 21.6084 2.0124
v  2.0124 21.6084 1.1619
v  2.3237 21.6084 -0.0000
v  2.0124 21.6084 -1.1619
v  1.1619 21.6084 -2.0124
v  0.0000 21.6084 -2.3237
v  -1.1619 21.6084 -2.0124
v  -2.0124 21.6084 -1.1619
v  -2.3237 21.6084 -0.0000
v  -2.0124 21.6084 1.1619
v  0.0000 31.2354 0.6076
v  -0.3038 31.2354 0.5262
v  0.3038 31.2354 0.5262
v  0.5262 31.2354 0.3038
v  0.6076 31.2354 -0.0000
v  0.5262 31.2354 -0.3038
v  0.3038 31.2354 -0.5262
v  0.0000 31.2354 -0.6076
v  -0.3038 31.2354 -0.5262
v  -0.5262 31.2354 -0.3038
v  -0.6076 31.2354 -0.0000
v  -0.5262 31.2354 0.3038
v  0.0000 29.3775 -0.7502
v  -0.3751 29.3775 -0.6497
v  -0.6497 29.3775 -0.3751
v  -0.7502 29.3775 -0.0000
v  -0.2374 31.2354 0.4112
v  0.0000 31.2354 0.4748
v  0.2374 31.2354 0.4112
v  0.4112 31.2354 0.2374
v  0.4748 31.2354 -0.0000
v  0.4112 31.2354 -0.2374
v  0.2374 31.2354 -0.4112
v  0.0000 31.2354 -0.4748
v  -0.2374 31.2354 -0.4112
v  -0.4112 31.2354 -0.2374
v  -0.4748 31.2354 -0.0000
v  -0.4112 31.2354 0.2374
v  -0.2238 31.5229 0.3876
v  0.0000 31.5229 0.4476
v  0.2238 31.5229 0.3876
v  0.3876 31.5229 0.2238
v  0.4476 31.5229 -0.0000
v  0.3876 31.5229 -0.2238
v  0.2238 31.5229 -0.3876
v  0.0000 31.5229 -0.4476
v  -0.2238 31.5229 -0.3876
v  -0.3876 31.5229 -0.2238
v  -0.4476 31.5229 -0.0000
v  -0.3876 31.5229 0.2238
v  -0.1644 31.5229 0.2847
v  0.0000 31.5229 0.3288
v  0.1644 31.5229 0.2847
v  0.2847 31.5229 0.1644
v  0.3288 31.5229 -0.0000
v  0.2847 31.5229 -0.1644
v  0.1644 31.5229 -0.2847
v  0.0000 31.5229 -0.3288
v  -0.1644 31.5229 -0.2847
v  -0.2847 31.5229 -0.1644
v  -0.3288 31.5229 -0.0000
v  -0.2847 31.5229 0.1644
v  -0.3751 29.3775 0.6497
v  0.0000 29.3775 0.7502
v  0.3751 29.3775 0.6497
v  0.6497 29.3775 0.3751
v  0.7502 29.3775 -0.0000
v  0.6497 29.3775 -0.3751
v  0.3751 29.3775 -0.6497
v  -0.6497 29.3775 0.3751
# 156 vertices

vn -0.3827 0.0000 0.9239
vn 0.0000 0.0000 1.0000
vn 0.9239 0.0000 0.3827
vn 1.0000 0.0000 -0.0000
vn 0.3827 0.0000 -0.9239
vn 0.0000 0.0000 -1.0000
vn -0.9239 0.0000 -0.3827
vn -1.0000 0.0000 -0.0000
vn 0.3827 0.0000 0.9239
vn -0.9239 0.0000 0.3827
vn 0.9239 0.0000 -0.3827
vn -0.3827 0.0000 -0.9239
vn 0.0000 1.0000 -0.0000
vn -0.4957 0.1316 0.8585
vn 0.0000 0.1316 0.9913
vn 0.0000 0.4987 0.8667
vn -0.4334 0.4987 0.7506
vn 0.4957 0.1316 0.8585
vn 0.4334 0.4987 0.7506
vn 0.8585 0.1316 0.4957
vn 0.7506 0.4987 0.4334
vn 0.9913 0.1316 -0.0000
vn 0.8667 0.4987 -0.0000
vn 0.8585 0.1316 -0.4957
vn 0.7506 0.4987 -0.4334
vn 0.4957 0.1316 -0.8585
vn 0.4334 0.4987 -0.7506
vn 0.0000 0.1316 -0.9913
vn 0.0000 0.4987 -0.8667
vn -0.4957 0.1316 -0.8585
vn -0.4334 0.4987 -0.7506
vn -0.8585 0.1316 -0.4957
vn -0.7506 0.4987 -0.4334
vn -0.9913 0.1316 -0.0000
vn -0.8667 0.4987 -0.0000
vn -0.8585 0.1316 0.4957
vn -0.7506 0.4987 0.4334
vn -0.4922 0.1755 0.8526
vn 0.0000 0.1755 0.9845
vn 0.4922 0.1755 0.8526
vn 0.8526 0.1755 0.4922
vn 0.9845 0.1755 -0.0000
vn 0.8526 0.1755 -0.4922
vn 0.4922 0.1755 -0.8526
vn 0.0000 0.1755 -0.9845
vn -0.4922 0.1755 -0.8526
vn -0.8526 0.1755 -0.4922
vn -0.9845 0.1755 -0.0000
vn -0.8526 0.1755 0.4922
vn 0.0000 -1.0000 -0.0000
vn 0.0000 0.5792 0.8152
vn 0.4076 0.5792 0.7060
vn 0.7060 0.5792 0.4076
vn 0.8152 0.5792 -0.0000
vn -0.4978 0.0942 0.8622
vn 0.0000 0.0942 0.9955
vn 0.4978 0.0942 0.8622
vn 0.8622 0.0942 0.4978
vn 0.9955 0.0942 -0.0000
vn 0.8622 0.0942 -0.4978
vn 0.4978 0.0942 -0.8622
vn 0.0000 0.0942 -0.9955
vn -0.4978 0.0942 -0.8622
vn -0.8622 0.0942 -0.4978
vn -0.9955 0.0942 -0.0000
vn -0.8622 0.0942 0.4978
vn 0.4076 0.5792 -0.7060
vn 0.4906 -0.1928 -0.8498
vn 0.0000 -0.1928 -0.9812
vn 0.0000 0.5792 -0.8152
vn -0.4906 -0.1928 -0.8498
vn -0.4076 0.5792 -0.7060
vn -0.8498 -0.1928 -0.4906
vn -0.7060 0.5792 -0.4076
vn -0.9812 -0.1928 -0.0000
vn -0.8152 0.5792 -0.0000
vn -0.8498 -0.1928 0.4906
vn -0.7060 0.5792 0.4076
vn -0.4906 -0.1928 0.8498
vn -0.4076 0.5792 0.7060
vn 0.0000 -0.1928 0.9812
vn 0.4906 -0.1928 0.8498
vn 0.8498 -0.1928 0.4906
vn 0.9812 -0.1928 -0.0000
vn 0.8498 -0.1928 -0.4906
vn 0.7060 0.5792 -0.4076
vn 0.0022 0.7061 0.7082
vn 0.0022 0.7060 0.7082
vn -0.2593 0.7065 0.6584
vn -0.2776 0.7064 0.6511
vn 0.7082 0.7061 -0.0022
vn 0.7082 0.7060 -0.0022
vn 0.6584 0.7065 0.2593
vn 0.6511 0.7064 0.2776
vn -0.0022 0.7061 -0.7082
vn -0.0022 0.7060 -0.7082
vn 0.2593 0.7065 -0.6584
vn 0.2776 0.7064 -0.6511
vn -0.7082 0.7061 0.0022
vn -0.7082 0.7060 0.0022
vn -0.6584 0.7065 -0.2593
vn -0.6511 0.7064 -0.2776
vn -0.6605 0.7054 0.2570
vn -0.6507 0.7076 0.2755
vn 0.2570 0.7054 0.6605
vn 0.2755 0.7076 0.6507
vn -0.2570 0.7054 -0.6605
vn -0.2755 0.7076 -0.6507
vn 0.6605 0.7054 -0.2570
vn 0.6507 0.7076 -0.2755
vn 0.0000 0.8295 0.5585
vn -0.2792 0.8295 0.4837
vn 0.2792 0.8295 0.4837
vn 0.4837 0.8295 0.2792
vn 0.5585 0.8295 -0.0000
vn 0.4837 0.8295 -0.2792
vn 0.2792 0.8295 -0.4837
vn 0.0000 0.8295 -0.5585
vn -0.2792 0.8295 -0.4837
vn -0.4837 0.8295 -0.2792
vn -0.5585 0.8295 -0.0000
vn -0.4837 0.8295 0.2792
# 122 vertex normals

vt 0.0876 0.0993 0.0000
vt 0.0020 0.0987 0.0000
vt 0.0021 0.0804 0.0000
vt 0.0877 0.0810 0.0000
vt 0.1892 0.4122 0.0000
vt 0.2749 0.4118 0.0000
vt 0.2750 0.4301 0.0000
vt 0.1894 0.4305 0.0000
vt 0.4605 0.4117 0.0000
vt 0.5462 0.4124 0.0000
vt 0.5460 0.4307 0.0000
vt 0.4604 0.4300 0.0000
vt 0.3589 0.0988 0.0000
vt 0.2733 0.0992 0.0000
vt 0.2732 0.0810 0.0000
vt 0.3588 0.0805 0.0000
vt 0.0895 0.4319 0.0000
vt 0.0892 0.4136 0.0000
vt 0.1876 0.0814 0.0000
vt 0.1876 0.0997 0.0000
vt 0.3605 0.4297 0.0000
vt 0.3605 0.4114 0.0000
vt 0.4587 0.0792 0.0000
vt 0.4589 0.0975 0.0000
vt 0.0521 0.0081 0.0000
vt 0.0855 0.0741 0.0000
vt 0.0022 0.0731 0.0000
vt 0.0025 0.0210 0.0000
vt 0.1148 0.5091 0.0000
vt 0.0912 0.4389 0.0000
vt 0.1879 0.4376 0.0000
vt 0.1661 0.5084 0.0000
vt 0.2260 0.5030 0.0000
vt 0.1917 0.4374 0.0000
vt 0.2750 0.4374 0.0000
vt 0.2754 0.4894 0.0000
vt 0.3846 0.5073 0.0000
vt 0.3621 0.4368 0.0000
vt 0.4588 0.4371 0.0000
vt 0.4359 0.5075 0.0000
vt 0.4960 0.5030 0.0000
vt 0.4627 0.4369 0.0000
vt 0.5460 0.4380 0.0000
vt 0.5456 0.4900 0.0000
vt 0.4333 0.0020 0.0000
vt 0.4570 0.0721 0.0000
vt 0.3603 0.0734 0.0000
vt 0.3820 0.0027 0.0000
vt 0.3222 0.0080 0.0000
vt 0.3564 0.0736 0.0000
vt 0.2731 0.0737 0.0000
vt 0.2728 0.0217 0.0000
vt 0.1636 0.0038 0.0000
vt 0.1861 0.0743 0.0000
vt 0.0893 0.0739 0.0000
vt 0.1123 0.0036 0.0000
vt 0.5446 0.0960 0.0000
vt 0.5442 0.0777 0.0000
vt 0.4936 0.0059 0.0000
vt 0.5433 0.0184 0.0000
vt 0.5441 0.0704 0.0000
vt 0.4608 0.0723 0.0000
vt 0.3247 0.5025 0.0000
vt 0.2751 0.4894 0.0000
vt 0.3583 0.4366 0.0000
vt 0.2235 0.0085 0.0000
vt 0.2730 0.0217 0.0000
vt 0.2732 0.0737 0.0000
vt 0.1899 0.0745 0.0000
vt 0.0036 0.4151 0.0000
vt 0.0039 0.4334 0.0000
vt 0.0546 0.5052 0.0000
vt 0.0049 0.4927 0.0000
vt 0.0040 0.4407 0.0000
vt 0.0873 0.4388 0.0000
vt 0.2409 0.9772 0.0000
vt 0.1944 0.9980 0.0000
vt 0.1927 0.9927 0.0000
vt 0.2386 0.9721 0.0000
vt 0.5021 0.5235 0.0000
vt 0.5021 0.5744 0.0000
vt 0.4965 0.5744 0.0000
vt 0.4966 0.5241 0.0000
vt 0.4956 0.6244 0.0000
vt 0.4901 0.6235 0.0000
vt 0.4841 0.6731 0.0000
vt 0.4787 0.6716 0.0000
vt 0.4679 0.7203 0.0000
vt 0.4627 0.7182 0.0000
vt 0.4472 0.7656 0.0000
vt 0.4422 0.7630 0.0000
vt 0.4222 0.8087 0.0000
vt 0.4175 0.8056 0.0000
vt 0.3931 0.8491 0.0000
vt 0.3887 0.8456 0.0000
vt 0.3601 0.8865 0.0000
vt 0.3561 0.8826 0.0000
vt 0.3236 0.9205 0.0000
vt 0.3201 0.9162 0.0000
vt 0.2839 0.9509 0.0000
vt 0.2808 0.9462 0.0000
vt 0.2346 0.9634 0.0000
vt 0.1917 0.9834 0.0000
vt 0.1521 0.8876 0.0000
vt 0.1855 0.8711 0.0000
vt 0.4877 0.5269 0.0000
vt 0.4869 0.5743 0.0000
vt 0.3826 0.5671 0.0000
vt 0.3841 0.5299 0.0000
vt 0.4806 0.6220 0.0000
vt 0.3776 0.6041 0.0000
vt 0.4695 0.6690 0.0000
vt 0.3688 0.6407 0.0000
vt 0.4538 0.7147 0.0000
vt 0.3565 0.6764 0.0000
vt 0.4337 0.7587 0.0000
vt 0.3408 0.7108 0.0000
vt 0.4095 0.8004 0.0000
vt 0.3217 0.7435 0.0000
vt 0.3812 0.8396 0.0000
vt 0.2996 0.7743 0.0000
vt 0.3493 0.8759 0.0000
vt 0.2746 0.8027 0.0000
vt 0.3140 0.9089 0.0000
vt 0.2471 0.8285 0.0000
vt 0.2756 0.9382 0.0000
vt 0.2172 0.8514 0.0000
vt 0.0675 0.7040 0.0000
vt 0.0842 0.6955 0.0000
vt 0.1810 0.5463 0.0000
vt 0.1819 0.5276 0.0000
vt 0.1786 0.5647 0.0000
vt 0.1744 0.5828 0.0000
vt 0.1684 0.6004 0.0000
vt 0.1608 0.6172 0.0000
vt 0.1515 0.6332 0.0000
vt 0.1407 0.6481 0.0000
vt 0.1285 0.6620 0.0000
vt 0.1149 0.6746 0.0000
vt 0.1001 0.6858 0.0000
vt 0.0031 0.5657 0.0000
vt 0.0075 0.5639 0.0000
vt 0.0296 0.5299 0.0000
vt 0.0294 0.5252 0.0000
vt 0.0293 0.5343 0.0000
vt 0.0286 0.5386 0.0000
vt 0.0274 0.5427 0.0000
vt 0.0257 0.5466 0.0000
vt 0.0236 0.5502 0.0000
vt 0.0211 0.5536 0.0000
vt 0.0183 0.5567 0.0000
vt 0.0150 0.5595 0.0000
vt 0.0114 0.5619 0.0000
vt 0.1178 0.2563 0.0000
vt 0.1174 0.1707 0.0000
vt 0.1182 0.3419 0.0000
vt 0.4303 0.2547 0.0000
vt 0.4308 0.3403 0.0000
vt 0.4299 0.1691 0.0000
vt 0.5931 0.0463 0.0000
vt 0.5947 0.0404 0.0000
vt 0.5990 0.0361 0.0000
vt 0.6049 0.0346 0.0000
vt 0.0068 0.5621 0.0000
vt 0.0031 0.5633 0.0000
vt 0.0271 0.5261 0.0000
vt 0.0276 0.5301 0.0000
vt 0.0274 0.5342 0.0000
vt 0.0267 0.5382 0.0000
vt 0.0256 0.5421 0.0000
vt 0.0240 0.5457 0.0000
vt 0.0220 0.5492 0.0000
vt 0.0197 0.5524 0.0000
vt 0.0170 0.5553 0.0000
vt 0.0139 0.5580 0.0000
vt 0.0105 0.5602 0.0000
vt 0.0054 0.5578 0.0000
vt 0.0020 0.5587 0.0000
vt 0.0226 0.5270 0.0000
vt 0.0231 0.5305 0.0000
vt 0.0230 0.5339 0.0000
vt 0.0224 0.5373 0.0000
vt 0.0214 0.5406 0.0000
vt 0.0200 0.5438 0.0000
vt 0.0183 0.5468 0.0000
vt 0.0162 0.5496 0.0000
vt 0.0139 0.5521 0.0000
vt 0.0113 0.5544 0.0000
vt 0.0085 0.5563 0.0000
vt 0.0049 0.5561 0.0000
vt 0.0021 0.5568 0.0000
vt 0.0208 0.5279 0.0000
vt 0.0213 0.5307 0.0000
vt 0.0212 0.5338 0.0000
vt 0.0206 0.5369 0.0000
vt 0.0197 0.5400 0.0000
vt 0.0184 0.5430 0.0000
vt 0.0168 0.5458 0.0000
vt 0.0148 0.5484 0.0000
vt 0.0127 0.5508 0.0000
vt 0.0102 0.5529 0.0000
vt 0.0076 0.5547 0.0000
vt 0.6150 0.0404 0.0000
vt 0.6485 0.0334 0.0000
vt 0.6491 0.0360 0.0000
vt 0.6166 0.0463 0.0000
vt 0.6491 0.0566 0.0000
vt 0.6485 0.0592 0.0000
vt 0.6150 0.0521 0.0000
vt 0.6379 0.0775 0.0000
vt 0.6360 0.0794 0.0000
vt 0.6107 0.0564 0.0000
vt 0.6178 0.0899 0.0000
vt 0.6152 0.0905 0.0000
vt 0.6049 0.0580 0.0000
vt 0.5945 0.0905 0.0000
vt 0.5919 0.0899 0.0000
vt 0.5990 0.0564 0.0000
vt 0.5736 0.0793 0.0000
vt 0.5718 0.0775 0.0000
vt 0.5947 0.0521 0.0000
vt 0.5613 0.0592 0.0000
vt 0.5606 0.0566 0.0000
vt 0.5606 0.0359 0.0000
vt 0.5613 0.0334 0.0000
vt 0.5718 0.0150 0.0000
vt 0.5737 0.0132 0.0000
vt 0.5920 0.0027 0.0000
vt 0.5945 0.0020 0.0000
vt 0.6152 0.0020 0.0000
vt 0.6178 0.0027 0.0000
vt 0.6107 0.0361 0.0000
vt 0.6361 0.0132 0.0000
vt 0.6380 0.0151 0.0000
# 234 texture coords

g Box001
usemtl ConeMaterial
s 2
f 1/1/1 2/2/2 3/3/2 4/4/1 
f 5/5/3 6/6/4 7/7/4 8/8/3 
f 9/9/5 10/10/6 11/11/6 12/12/5 
f 13/13/7 14/14/8 15/15/8 16/16/7 
f 17/17/9 18/18/9 5/5/3 8/8/3 
f 1/1/1 4/4/1 19/19/10 20/20/10 
f 21/21/11 22/22/11 9/9/5 12/12/5 
f 23/23/12 24/24/12 13/13/7 16/16/7 
f 25/25/13 26/26/13 27/27/13 28/28/13 
f 29/29/13 30/30/13 31/31/13 32/32/13 
f 32/33/13 31/34/13 33/35/13 34/36/13 
f 35/37/13 36/38/13 37/39/13 38/40/13 
f 38/41/13 37/42/13 39/43/13 40/44/13 
f 41/45/13 42/46/13 43/47/13 44/48/13 
f 44/49/13 43/50/13 45/51/13 46/52/13 
f 47/53/13 48/54/13 26/55/13 25/56/13 
f 10/57/6 24/24/12 23/23/12 11/58/6 
f 41/59/13 40/60/13 39/61/13 42/62/13 
f 6/6/4 22/22/11 21/21/11 7/7/4 
f 35/63/13 34/64/13 33/35/13 36/65/13 
f 14/14/8 20/20/10 19/19/10 15/15/8 
f 47/66/13 46/67/13 45/68/13 48/69/13 
f 2/70/2 18/18/9 17/17/9 3/71/2 
f 29/72/13 28/73/13 27/74/13 30/75/13 
s 4
f 25/76/14 28/77/15 49/78/16 50/79/17 
f 28/80/15 29/81/18 51/82/19 49/83/16 
f 29/81/18 32/84/20 52/85/21 51/82/19 
f 32/84/20 34/86/22 53/87/23 52/85/21 
f 34/86/22 35/88/24 54/89/25 53/87/23 
f 35/88/24 38/90/26 55/91/27 54/89/25 
f 38/90/26 40/92/28 56/93/29 55/91/27 
f 40/92/28 41/94/30 57/95/31 56/93/29 
f 41/94/30 44/96/32 58/97/33 57/95/31 
f 44/96/32 46/98/34 59/99/35 58/97/33 
f 46/98/34 47/100/36 60/101/37 59/99/35 
f 47/100/36 25/76/14 50/79/17 60/101/37 
s 1
f 61/102/38 62/103/39 63/104/39 64/105/38 
f 62/106/39 65/107/40 66/108/40 63/109/39 
f 65/107/40 67/110/41 68/111/41 66/108/40 
f 67/110/41 69/112/42 70/113/42 68/111/41 
f 69/112/42 71/114/43 72/115/43 70/113/42 
f 71/114/43 73/116/44 74/117/44 72/115/43 
f 73/116/44 75/118/45 76/119/45 74/117/44 
f 75/118/45 77/120/46 78/121/46 76/119/45 
f 77/120/46 79/122/47 80/123/47 78/121/46 
f 79/122/47 81/124/48 82/125/48 80/123/47 
f 81/124/48 83/126/49 84/127/49 82/125/48 
f 83/126/49 61/102/38 64/105/38 84/127/49 
f 63/104/39 85/128/39 86/129/38 64/105/38 
f 66/108/40 87/130/40 85/131/39 63/109/39 
f 68/111/41 88/132/41 87/130/40 66/108/40 
f 70/113/42 89/133/42 88/132/41 68/111/41 
f 72/115/43 90/134/43 89/133/42 70/113/42 
f 74/117/44 91/135/44 90/134/43 72/115/43 
f 76/119/45 92/136/45 91/135/44 74/117/44 
f 78/121/46 93/137/46 92/136/45 76/119/45 
f 80/123/47 94/138/47 93/137/46 78/121/46 
f 82/125/48 95/139/48 94/138/47 80/123/47 
f 84/127/49 96/140/49 95/139/48 82/125/48 
f 64/105/38 86/129/38 96/140/49 84/127/49 
f 85/128/39 97/141/39 98/142/38 86/129/38 
f 87/130/40 99/143/40 97/144/39 85/131/39 
f 88/132/41 100/145/41 99/143/40 87/130/40 
f 89/133/42 101/146/42 100/145/41 88/132/41 
f 90/134/43 102/147/43 101/146/42 89/133/42 
f 91/135/44 103/148/44 102/147/43 90/134/43 
f 92/136/45 104/149/45 103/148/44 91/135/44 
f 93/137/46 105/150/46 104/149/45 92/136/45 
f 94/138/47 106/151/47 105/150/46 93/137/46 
f 95/139/48 107/152/48 106/151/47 94/138/47 
f 96/140/49 108/153/49 107/152/48 95/139/48 
f 86/129/38 98/142/38 108/153/49 96/140/49 
f 20/20/50 14/14/50 2/154/50 1/155/50 
f 2/154/50 6/6/50 5/5/50 18/156/50 
f 6/6/50 10/157/50 9/158/50 22/22/50 
f 10/157/50 14/14/50 13/13/50 24/159/50 
f 6/6/50 2/154/50 14/14/50 10/157/50 
f 109/160/51 110/161/52 111/162/53 112/163/54 
s 2
f 113/164/13 98/142/13 97/141/13 114/165/13 
f 114/166/13 97/144/13 99/143/13 115/167/13 
f 115/167/13 99/143/13 100/145/13 116/168/13 
f 116/168/13 100/145/13 101/146/13 117/169/13 
f 117/169/13 101/146/13 102/147/13 118/170/13 
f 118/170/13 102/147/13 103/148/13 119/171/13 
f 119/171/13 103/148/13 104/149/13 120/172/13 
f 120/172/13 104/149/13 105/150/13 121/173/13 
f 121/173/13 105/150/13 106/151/13 122/174/13 
f 122/174/13 106/151/13 107/152/13 123/175/13 
f 123/175/13 107/152/13 108/153/13 124/176/13 
f 124/176/13 108/153/13 98/142/13 113/164/13 
s 1
f 125/177/55 113/164/55 114/165/56 126/178/56 
f 126/179/56 114/166/56 115/167/57 127/180/57 
f 127/180/57 115/167/57 116/168/58 128/181/58 
f 128/181/58 116/168/58 117/169/59 129/182/59 
f 129/182/59 117/169/59 118/170/60 130/183/60 
f 130/183/60 118/170/60 119/171/61 131/184/61 
f 131/184/61 119/171/61 120/172/62 132/185/62 
f 132/185/62 120/172/62 121/173/63 133/186/63 
f 133/186/63 121/173/63 122/174/64 134/187/64 
f 134/187/64 122/174/64 123/175/65 135/188/65 
f 135/188/65 123/175/65 124/176/66 136/189/66 
f 136/189/66 124/176/66 113/164/55 125/177/55 
s 2
f 137/190/13 125/177/13 126/178/13 138/191/13 
f 138/192/13 126/179/13 127/180/13 139/193/13 
f 139/193/13 127/180/13 128/181/13 140/194/13 
f 140/194/13 128/181/13 129/182/13 141/195/13 
f 141/195/13 129/182/13 130/183/13 142/196/13 
f 142/196/13 130/183/13 131/184/13 143/197/13 
f 143/197/13 131/184/13 132/185/13 144/198/13 
f 144/198/13 132/185/13 133/186/13 145/199/13 
f 145/199/13 133/186/13 134/187/13 146/200/13 
f 146/200/13 134/187/13 135/188/13 147/201/13 
f 147/201/13 135/188/13 136/189/13 148/202/13 
f 148/202/13 136/189/13 125/177/13 137/190/13 
s 1
f 149/203/67 137/204/68 138/205/69 150/206/70 
f 150/206/70 138/207/69 139/208/71 151/209/72 
f 151/209/72 139/210/71 140/211/73 152/212/74 
f 152/212/74 140/213/73 141/214/75 153/215/76 
f 153/215/76 141/216/75 142/217/77 154/218/78 
f 154/218/78 142/219/77 143/220/79 155/221/80 
f 155/221/80 143/222/79 144/223/81 109/160/51 
f 109/160/51 144/224/81 145/225/82 110/161/52 
f 110/161/52 145/226/82 146/227/83 111/162/53 
f 111/162/53 146/228/83 147/229/84 112/163/54 
f 112/163/54 147/230/84 148/231/85 156/232/86 
f 156/232/86 148/233/85 137/234/68 149/203/67 
f 3/3/87 27/27/88 26/26/89 4/4/90 
f 7/7/91 33/35/92 31/34/93 8/8/94 
f 11/11/95 39/43/96 37/42/97 12/12/98 
f 15/15/99 45/51/100 43/50/101 16/16/102 
f 26/55/89 48/54/103 19/19/104 4/4/90 
f 31/31/93 30/30/105 17/17/106 8/8/94 
f 43/47/101 42/46/107 23/23/108 16/16/102 
f 37/39/97 36/38/109 21/21/110 12/12/98 
f 42/62/107 39/61/96 11/58/95 23/23/108 
f 36/65/109 33/35/92 7/7/91 21/21/110 
f 48/69/103 45/68/100 15/15/99 19/19/104 
f 30/75/105 27/74/88 3/71/87 17/17/106 
s 4
f 49/78/16 62/103/111 61/102/112 50/79/17 
f 51/82/19 65/107/113 62/106/111 49/83/16 
f 52/85/21 67/110/114 65/107/113 51/82/19 
f 53/87/23 69/112/115 67/110/114 52/85/21 
f 54/89/25 71/114/116 69/112/115 53/87/23 
f 55/91/27 73/116/117 71/114/116 54/89/25 
f 56/93/29 75/118/118 73/116/117 55/91/27 
f 57/95/31 77/120/119 75/118/118 56/93/29 
f 58/97/33 79/122/120 77/120/119 57/95/31 
f 59/99/35 81/124/121 79/122/120 58/97/33 
f 60/101/37 83/126/122 81/124/121 59/99/35 
f 50/79/17 61/102/112 83/126/122 60/101/37 
s 1
f 153/215/76 154/218/78 155/221/80 109/160/51 
f 150/206/70 151/209/72 152/212/74 153/215/76 
f 112/163/54 156/232/86 149/203/67 150/206/70 
f 150/206/70 153/215/76 109/160/51 112/163/54 
# 154 polygons

